<?xml version="1.0" standalone="no"?>
<!DOCTYPE svg PUBLIC "-//W3C//DTD SVG 20010904//EN"
 "http://www.w3.org/TR/2001/REC-SVG-20010904/DTD/svg10.dtd">
<svg version="1.0" xmlns="http://www.w3.org/2000/svg"
 width="180.000000pt" height="180.000000pt" viewBox="0 0 180.000000 180.000000"
 preserveAspectRatio="xMidYMid meet">

<g transform="translate(0.000000,180.000000) scale(0.100000,-0.100000)"
fill="#000000" stroke="none">
<path d="M900 1545 c0 -24 -3 -25 -55 -25 -54 0 -55 0 -55 -30 0 -30 -1 -30
-55 -30 -52 0 -55 -1 -55 -25 0 -21 -5 -25 -30 -25 -27 0 -30 -3 -30 -30 0
-27 -3 -30 -30 -30 -27 0 -30 -3 -30 -30 0 -25 -4 -30 -25 -30 -20 0 -25 -5
-25 -25 0 -21 -5 -25 -30 -25 -27 0 -30 -3 -30 -30 0 -27 -3 -30 -30 -30 -30
0 -30 -1 -30 -55 0 -52 -1 -55 -25 -55 -24 0 -25 -3 -25 -55 0 -54 0 -55 -30
-55 l-30 0 0 -170 0 -170 30 0 c30 0 30 -1 30 -55 0 -52 1 -55 25 -55 21 0 25
-5 25 -30 0 -27 3 -30 30 -30 27 0 30 -3 30 -30 0 -27 3 -30 30 -30 l30 0 0
-140 0 -140 25 0 c20 0 25 -5 25 -25 0 -21 5 -25 30 -25 25 0 30 4 30 25 0 21
5 25 30 25 l30 0 0 115 0 115 80 0 c79 0 80 0 80 25 0 24 3 25 60 25 l60 0 0
30 c0 30 1 30 55 30 54 0 55 0 55 30 0 27 3 30 30 30 25 0 30 4 30 25 0 20 5
25 25 25 21 0 25 5 25 30 0 27 3 30 30 30 30 0 30 1 30 55 0 52 1 55 25 55
l25 0 0 255 0 255 30 0 c30 0 30 1 30 55 0 54 0 55 30 55 27 0 30 3 30 30 0
25 4 30 25 30 20 0 25 5 25 25 0 24 3 25 60 25 l60 0 0 30 0 30 -60 0 c-57 0
-60 1 -60 25 l0 25 -280 0 -280 0 0 -25z m560 -55 c0 -25 -4 -30 -25 -30 -20
0 -25 -5 -25 -25 0 -21 -5 -25 -30 -25 -27 0 -30 -3 -30 -30 0 -27 -3 -30 -30
-30 -30 0 -30 -1 -30 -55 0 -52 -1 -55 -25 -55 l-25 0 0 -225 0 -225 -30 0
-30 0 0 -60 c0 -57 -1 -60 -25 -60 -20 0 -25 -5 -25 -25 0 -21 -5 -25 -30 -25
-27 0 -30 -3 -30 -30 0 -27 -3 -30 -30 -30 -25 0 -30 -4 -30 -25 0 -24 -3 -25
-55 -25 -54 0 -55 0 -55 -30 l0 -30 -140 0 -140 0 0 140 0 140 -30 0 -30 0 0
-140 0 -140 -55 0 c-54 0 -55 0 -55 30 0 27 -3 30 -30 30 -30 0 -30 1 -30 55
0 52 -1 55 -25 55 l-25 0 0 170 0 170 25 0 c24 0 25 3 25 55 0 54 0 55 30 55
30 0 30 1 30 55 0 54 0 55 30 55 27 0 30 3 30 30 0 25 4 30 25 30 20 0 25 5
25 25 0 21 5 25 30 25 27 0 30 3 30 30 0 27 3 30 30 30 27 0 30 3 30 30 0 30
1 30 55 30 52 0 55 1 55 25 0 24 3 25 55 25 54 0 55 0 55 30 l0 30 280 0 280
0 0 -30z"/>
<path d="M1070 1435 c0 -24 -3 -25 -55 -25 -54 0 -55 0 -55 -30 0 -27 -3 -30
-30 -30 -27 0 -30 -3 -30 -30 0 -27 -3 -30 -30 -30 -25 0 -30 -4 -30 -25 0
-20 -5 -25 -25 -25 -24 0 -25 -3 -25 -60 l0 -60 -30 0 c-30 0 -30 -1 -30 -55
0 -52 -1 -55 -25 -55 -24 0 -25 -3 -25 -55 0 -54 0 -55 -30 -55 l-30 0 0 -85
0 -85 30 0 30 0 0 85 c0 84 0 85 25 85 24 0 25 3 25 55 0 54 0 55 30 55 30 0
30 1 30 55 0 52 1 55 25 55 24 0 25 3 25 60 l0 60 30 0 c25 0 30 4 30 25 0 21
5 25 30 25 27 0 30 3 30 30 0 30 1 30 55 30 54 0 55 0 55 30 0 30 1 30 55 30
52 0 55 1 55 25 0 24 -3 25 -55 25 -52 0 -55 -1 -55 -25z"/>
</g>
</svg>
